<svg width="40" height="40" viewBox="0 0 40 40" fill="none" xmlns="http://www.w3.org/2000/svg">
<path d="M12 10C11.4696 10 10.9609 10.2107 10.5858 10.5858C10.2107 10.9609 10 11.4696 10 12V24C10 24.5304 10.2107 25.0391 10.5858 25.4142C10.9609 25.7893 11.4696 26 12 26H16V29C16 29.2652 16.1054 29.5196 16.2929 29.7071C16.4804 29.8946 16.7348 30 17 30H17.5C17.75 30 18 29.9 18.2 29.71L21.9 26H28C28.5304 26 29.0391 25.7893 29.4142 25.4142C29.7893 25.0391 30 24.5304 30 24V12C30 10.89 29.1 10 28 10H12ZM12 12H28V24H21.08L18 27.08V24H12V12ZM20.19 13.5C19.3 13.5 18.59 13.68 18.05 14.04C17.5 14.4 17.22 15 17.27 15.69C8.21 15.69 14.57 15.69 19.24 15.69C19.24 15.41 19.34 15.2 19.5 15.06C19.7 14.92 19.92 14.85 20.19 14.85C20.5 14.85 20.77 14.93 20.95 15.11C21.13 15.28 21.22 15.5 21.22 15.8C21.22 16.08 21.14 16.33 21 16.54C20.83 16.76 20.62 16.94 20.36 17.08C19.84 17.4 19.5 17.68 19.29 17.92C19.1 18.16 19 18.5 19 19H21C21 18.72 21.05 18.5 21.14 18.32C21.23 18.15 21.4 18 21.66 17.85C22.12 17.64 22.5 17.36 22.79 17C23.08 16.63 23.23 16.24 23.23 15.8C23.23 15.1 22.96 14.54 22.42 14.12C21.88 13.71 21.13 13.5 20.19 13.5ZM19 20V22H21V20H19Z" fill="white"/>
</svg>
