<svg width="56" height="56" viewBox="0 0 56 56" fill="none" xmlns="http://www.w3.org/2000/svg">
<g clip-path="url(#clip0)">
<path d="M28 0C12.229 0 0 11.557 0 27.16C0 35.322 3.346 42.378 8.792 47.25C9.247 47.656 9.527 48.23 9.541 48.846L9.695 53.83C9.744 55.419 11.382 56.455 12.838 55.811L18.396 53.361C18.865 53.151 19.397 53.116 19.894 53.249C22.449 53.949 25.165 54.327 28 54.327C43.771 54.327 56 42.77 56 27.167C56 11.564 43.771 0 28 0Z" fill="#8BADC3"/>
<path d="M11.1859 35.105L19.4109 22.057C20.7199 19.978 23.5199 19.467 25.4869 20.937L32.0319 25.844C32.6339 26.292 33.4599 26.292 34.0549 25.837L42.8889 19.131C44.0649 18.235 45.6049 19.649 44.8209 20.902L36.5889 33.943C35.2799 36.022 32.4799 36.533 30.5129 35.063L23.9679 30.156C23.3659 29.708 22.5399 29.708 21.9449 30.163L13.1109 36.869C11.9349 37.765 10.3949 36.358 11.1859 35.105Z" fill="white"/>
</g>
<defs>
<clipPath id="clip0">
<rect width="56" height="56" fill="white"/>
</clipPath>
</defs>
</svg>
