<svg width="40" height="40" viewBox="0 0 40 40" fill="none" xmlns="http://www.w3.org/2000/svg">
<path d="M0 4C0 1.79086 1.79086 0 4 0H36C38.2091 0 40 1.79086 40 4V36C40 38.2091 38.2091 40 36 40H4C1.79086 40 0 38.2091 0 36V4Z" fill="white"/>
<path d="M21.9266 12C21.5288 12 21.1473 12.158 20.866 12.4393C20.5847 12.7206 20.4266 13.1022 20.4266 13.5C20.4266 13.8978 20.5847 14.2794 20.866 14.5607C21.1473 14.842 21.5288 15 21.9266 15C22.3245 15 22.706 14.842 22.9873 14.5607C23.2686 14.2794 23.4266 13.8978 23.4266 13.5C23.4266 13.1022 23.2686 12.7206 22.9873 12.4393C22.706 12.158 22.3245 12 21.9266 12ZM21.5666 16.77C20.3766 16.87 17.1266 19.46 17.1266 19.46C16.9266 19.61 16.9866 19.6 17.1466 19.88C17.3066 20.15 17.2866 20.17 17.4766 20.04C17.6766 19.91 18.0066 19.7 18.5566 19.36C20.6766 18 18.8966 21.14 17.9866 26.43C17.6266 29.05 19.9866 27.7 20.5966 27.3C21.1966 26.91 22.8066 25.8 22.9666 25.69C23.1866 25.54 23.0266 25.42 22.8566 25.17C22.7366 25 22.6166 25.12 22.6166 25.12C21.9666 25.55 20.7766 26.45 20.6166 25.88C20.4266 25.31 21.6466 21.4 22.3166 18.71C22.4266 18.07 22.7266 16.67 21.5666 16.77Z" fill="#979797"/>
</svg>
