<svg width="56" height="56" viewBox="0 0 56 56" fill="none" xmlns="http://www.w3.org/2000/svg">
<path d="M28 56C43.464 56 56 43.464 56 28C56 12.536 43.464 0 28 0C12.536 0 0 12.536 0 28C0 43.464 12.536 56 28 56Z" fill="#76A5C3"/>
<path d="M12.4434 27.3209L39.9354 17.1248C41.2114 16.6814 42.3258 17.4242 41.9124 19.2801L41.9147 19.2778L37.2337 40.4907C36.8868 41.9946 35.9577 42.3603 34.658 41.6518L27.5296 36.5983L24.0913 39.7844C23.7111 40.1501 23.3903 40.4587 22.6537 40.4587L23.1598 33.4807L36.3712 22C36.9462 21.5132 36.2429 21.2389 35.4849 21.7235L19.1584 31.611L12.1203 29.4991C10.5924 29.0329 10.5592 28.0295 12.4434 27.3209Z" fill="white"/>
</svg>
