<svg width="56" height="56" viewBox="0 0 56 56" fill="none" xmlns="http://www.w3.org/2000/svg">
<path d="M28 56C43.464 56 56 43.464 56 28C56 12.536 43.464 0 28 0C12.536 0 0 12.536 0 28C0 43.464 12.536 56 28 56Z" fill="#4FB8FF"/>
<path fill-rule="evenodd" clip-rule="evenodd" d="M26.9424 40.2805H29.14C29.14 40.2805 29.8038 40.2076 30.1428 39.8423C30.4547 39.5069 30.4447 38.877 30.4447 38.877C30.4447 38.877 30.4018 35.9281 31.7704 35.4939C33.1195 35.0661 34.852 38.3439 36.6883 39.6042C38.0769 40.558 39.132 40.3489 39.132 40.3489L44.0419 40.2805C44.0419 40.2805 46.6104 40.1223 45.3926 38.1028C45.2927 37.9376 44.6833 36.6089 41.742 33.8787C38.6633 31.0212 39.0756 31.4834 42.7841 26.5406C45.0427 23.5303 45.9456 21.6925 45.6636 20.9054C45.3946 20.1557 43.7335 20.3539 43.7335 20.3539L38.2051 20.3883C38.2051 20.3883 37.7954 20.3324 37.4914 20.5141C37.1944 20.6923 37.0032 21.1076 37.0032 21.1076C37.0032 21.1076 36.1283 23.437 34.9613 25.418C32.4996 29.5982 31.5153 29.8188 31.1131 29.5593C30.1772 28.9543 30.4108 27.129 30.4108 25.8323C30.4108 21.7814 31.0252 20.0924 29.2144 19.6551C28.6134 19.5099 28.1712 19.414 26.6344 19.3986C24.6618 19.3781 22.9923 19.4046 22.0469 19.8677C21.418 20.1757 20.9329 20.862 21.2284 20.9014C21.5937 20.9503 22.4213 21.1245 22.86 21.722C23.4265 22.4927 23.4065 24.2236 23.4065 24.2236C23.4065 24.2236 23.732 28.9923 22.6464 29.5847C21.9012 29.991 20.879 29.1615 18.6843 25.3691C17.5598 23.4265 16.7108 21.2793 16.7108 21.2793C16.7108 21.2793 16.547 20.878 16.2551 20.6634C15.9007 20.4033 15.4055 20.3205 15.4055 20.3205L10.1522 20.3549C10.1522 20.3549 9.36362 20.3769 9.07413 20.7198C8.81658 21.0247 9.05366 21.6556 9.05366 21.6556C9.05366 21.6556 13.1665 31.2778 17.8233 36.1268C22.0933 40.5725 26.9424 40.2805 26.9424 40.2805Z" fill="white"/>
</svg>
