<svg width="56" height="56" viewBox="0 0 56 56" fill="none" xmlns="http://www.w3.org/2000/svg">
<g clip-path="url(#clip0)">
<path d="M47.88 8.04767C42.56 2.905 35.56 0 28.105 0C6.70833 0 -6.727 23.1817 3.95733 41.622L0 56L14.7817 52.1453C21.2217 55.6243 26.4973 55.3163 28.119 55.5217C52.9293 55.5217 65.2797 25.5057 47.845 8.13867L47.88 8.04767Z" fill="#F3F3F3"/>
<path d="M28.1558 50.7523L28.1418 50.75H28.1045C20.6798 50.75 15.9362 47.2337 15.4695 47.0307L6.71948 49.3057L9.06448 40.8007L8.50682 39.9257C6.19682 36.2483 4.96948 32.0133 4.96948 27.6523C4.96948 7.13534 30.0412 -3.12433 44.5498 11.3773C59.0235 25.7273 48.8618 50.7523 28.1558 50.7523Z" fill="#80BC55"/>
<path d="M40.8495 33.3829L40.8285 33.5579C40.1262 33.2079 36.7055 31.5349 36.0685 31.3039C34.6382 30.7743 35.0418 31.2199 32.2955 34.3653C31.8872 34.8203 31.4812 34.8553 30.7882 34.5403C30.0882 34.1903 27.8412 33.4553 25.1812 31.0753C23.1092 29.2203 21.7185 26.9453 21.3078 26.2453C20.6242 25.0646 22.0545 24.8966 23.3565 22.4326C23.5898 21.9426 23.4708 21.5576 23.2982 21.2099C23.1232 20.8599 21.7302 17.4299 21.1468 16.0626C20.5868 14.6999 20.0105 14.8726 19.5788 14.8726C18.2348 14.7559 17.2525 14.7746 16.3868 15.6753C12.6208 19.8146 13.5705 24.0846 16.7928 28.6253C23.1255 36.9133 26.4995 38.4393 32.6688 40.5579C34.3348 41.0876 35.8538 41.0129 37.0555 40.8403C38.3948 40.6279 41.1785 39.1579 41.7595 37.5129C42.3545 35.8679 42.3545 34.5029 42.1795 34.1879C42.0068 33.8729 41.5495 33.6979 40.8495 33.3829Z" fill="#F3F3F3"/>
</g>
<defs>
<clipPath id="clip0">
<rect width="56" height="56" fill="white"/>
</clipPath>
</defs>
</svg>
