<svg width="24" height="24" viewBox="0 0 24 24" fill="none" xmlns="http://www.w3.org/2000/svg">
<path d="M12.5998 12.6C11.3998 12.6 8.9998 13.2 8.9998 14.4V15.6H16.1998V14.4C16.1998 13.2 13.7998 12.6 12.5998 12.6ZM16.5718 12.696C17.0698 13.128 17.3998 13.692 17.3998 14.4V15.6H19.1998V14.4C19.1998 13.476 17.7778 12.9 16.5718 12.696ZM12.5998 11.4C13.0772 11.4 13.535 11.2104 13.8726 10.8728C14.2102 10.5353 14.3998 10.0774 14.3998 9.60005C14.3998 9.12266 14.2102 8.66482 13.8726 8.32726C13.535 7.98969 13.0772 7.80005 12.5998 7.80005C12.1224 7.80005 11.6646 7.98969 11.327 8.32726C10.9894 8.66482 10.7998 9.12266 10.7998 9.60005C10.7998 10.0774 10.9894 10.5353 11.327 10.8728C11.6646 11.2104 12.1224 11.4 12.5998 11.4ZM15.5998 11.4C16.0772 11.4 16.535 11.2104 16.8726 10.8728C17.2102 10.5353 17.3998 10.0774 17.3998 9.60005C17.3998 9.12266 17.2102 8.66482 16.8726 8.32726C16.535 7.98969 16.0772 7.80005 15.5998 7.80005C15.4078 7.80005 15.2218 7.83005 15.0478 7.88405C15.3898 8.37005 15.5998 8.96405 15.5998 9.60005C15.5998 10.236 15.3898 10.824 15.0478 11.31C15.2218 11.37 15.4078 11.4 15.5998 11.4ZM9.5998 10.8H7.7998V9.00005H6.5998V10.8H4.7998V12H6.5998V13.8H7.7998V12H9.5998V10.8Z" fill="#979797"/>
</svg>
